<svg width="119" height="78" viewBox="0 0 119 78" fill="none" xmlns="http://www.w3.org/2000/svg">
<path d="M0.664 61.208C0.664 60.2267 0.749333 59.0747 0.92 57.752C1.09067 56.4293 1.41067 54.936 1.88 53.272C2.34933 51.5653 3.05333 49.6667 3.992 47.576L11.864 50.328C11.3947 51.6507 10.9893 52.8667 10.648 53.976C10.3067 55.0427 10.0507 56.0453 9.88 56.984C9.70933 57.88 9.624 58.776 9.624 59.672C9.624 61.7627 10.0933 63.4693 11.032 64.792C12.0133 66.1573 13.3787 67.16 15.128 67.8C16.8773 68.4827 18.904 68.824 21.208 68.824C23.8533 68.824 26.0293 68.4613 27.736 67.736C29.4427 67.0533 30.7653 66.136 31.704 64.984C32.6427 63.8747 33.304 62.6587 33.688 61.336C34.072 59.9707 34.264 58.648 34.264 57.368C34.264 55.6187 33.9653 53.5493 33.368 51.16C32.7707 48.728 31.704 45.9973 30.168 42.968L38.424 39.448C39.2773 40.9413 40.0667 42.6907 40.792 44.696C41.5173 46.6587 42.0933 48.7067 42.52 50.84C42.9893 52.9733 43.224 55 43.224 56.92C43.224 58.6267 43.0107 60.44 42.584 62.36C42.1573 64.2373 41.432 66.0933 40.408 67.928C39.4267 69.7627 38.0827 71.4053 36.376 72.856C34.6693 74.3493 32.5573 75.544 30.04 76.44C27.5227 77.336 24.5147 77.784 21.016 77.784C18.2 77.784 15.5547 77.464 13.08 76.824C10.648 76.2267 8.49333 75.2667 6.616 73.944C4.78133 72.6213 3.33067 70.8933 2.264 68.76C1.19733 66.6693 0.664 64.152 0.664 61.208ZM21.528 36.888C20.2053 36.888 19.0747 36.44 18.136 35.544C17.24 34.648 16.792 33.5387 16.792 32.216C16.792 30.8933 17.24 29.7627 18.136 28.824C19.0747 27.8853 20.2053 27.416 21.528 27.416C22.808 27.416 23.896 27.8853 24.792 28.824C25.7307 29.7627 26.2 30.8933 26.2 32.216C26.2 33.5387 25.7307 34.648 24.792 35.544C23.896 36.44 22.808 36.888 21.528 36.888ZM66.7255 63.32C62.7575 63.32 59.6855 62.9147 57.5095 62.104C55.3762 61.2933 53.8828 60.0347 53.0295 58.328C52.1762 56.5787 51.6855 54.3813 51.5575 51.736L50.2135 16.152H59.1735L60.5175 47.448C60.6028 49.4107 60.8162 50.8827 61.1575 51.864C61.4988 52.8453 62.1388 53.5067 63.0775 53.848C64.0588 54.1893 65.4882 54.36 67.3655 54.36C68.9868 54.36 70.1388 54.7867 70.8215 55.64C71.5468 56.4507 71.9095 57.4747 71.9095 58.712C71.9095 60.0347 71.4615 61.144 70.5655 62.04C69.6695 62.8933 68.3895 63.32 66.7255 63.32ZM66.8125 63.32L67.4525 54.36C68.4338 54.36 69.2658 54.1253 69.9485 53.656C70.6738 53.144 71.4205 52.312 72.1885 51.16C72.9565 49.9653 73.8525 48.3653 74.8765 46.36C76.1565 43.8 77.4792 41.7947 78.8445 40.344C80.2525 38.8933 81.6818 37.8693 83.1325 37.272C84.6258 36.632 86.1192 36.312 87.6125 36.312C89.4898 36.312 91.2392 36.7173 92.8605 37.528C94.4818 38.3387 95.8898 39.448 97.0845 40.856C98.2792 42.2213 99.1965 43.8 99.8365 45.592C100.519 47.3413 100.861 49.1547 100.861 51.032C100.861 53.2933 100.37 55.3413 99.3885 57.176C98.4498 58.968 97.1272 60.3973 95.4205 61.464C93.7565 62.488 91.8365 63 89.6605 63C87.8258 63 85.6925 62.68 83.2605 62.04C80.8285 61.4 78.2685 60.056 75.5805 58.008L78.8445 50.264C80.7645 51.5867 82.5565 52.5467 84.2205 53.144C85.9272 53.7413 87.3352 54.04 88.4445 54.04C89.2978 54.04 90.0018 53.9547 90.5565 53.784C91.1112 53.6133 91.5165 53.336 91.7725 52.952C92.0285 52.568 92.1565 52.056 92.1565 51.416C92.1565 50.52 91.9432 49.6027 91.5165 48.664C91.0898 47.7253 90.5138 46.936 89.7885 46.296C89.1058 45.6133 88.2952 45.272 87.3565 45.272C86.4605 45.272 85.6925 45.6133 85.0525 46.296C84.4552 46.936 83.8578 47.8747 83.2605 49.112C82.7058 50.3067 82.0232 51.7147 81.2125 53.336C80.2312 55.2987 79.2712 56.9413 78.3325 58.264C77.3938 59.544 76.3912 60.568 75.3245 61.336C74.3005 62.0613 73.0845 62.5733 71.6765 62.872C70.3112 63.1707 68.6898 63.32 66.8125 63.32ZM109.055 63L107.839 20.632H116.799L118.015 63H109.055ZM105.535 16.536L104.447 12.056C105.94 11.8 107.049 11.5867 107.775 11.416C108.543 11.2453 109.353 11.0533 110.207 10.84L109.567 12.44C108.457 12.056 107.391 11.3093 106.367 10.2C105.385 9.048 104.895 7.74666 104.895 6.296C104.895 4.76 105.236 3.52266 105.919 2.584C106.601 1.64533 107.476 0.962664 108.543 0.535995C109.609 0.109329 110.719 -0.104004 111.871 -0.104004C112.511 -0.104004 113.108 -0.0613365 113.663 0.0239983C114.26 0.10933 114.793 0.23733 115.263 0.407997L114.751 5.016C114.324 4.93066 113.897 4.84533 113.47 4.76C113.044 4.67466 112.575 4.632 112.062 4.632C111.508 4.632 110.996 4.824 110.527 5.208C110.1 5.54933 109.887 5.976 109.887 6.488C109.887 7.21333 110.143 7.85333 110.655 8.408C111.167 8.96266 111.764 9.41066 112.447 9.752C113.172 10.0507 113.769 10.2213 114.239 10.264L110.719 10.648C111.871 10.3493 112.959 10.0507 113.983 9.752C115.007 9.41066 115.967 9.06933 116.863 8.728L118.143 13.016C117.076 13.4 115.817 13.8267 114.367 14.296C112.959 14.7227 111.487 15.128 109.951 15.512C108.457 15.896 106.985 16.2373 105.535 16.536Z" fill="url(#paint0_linear_1_30)"/>
<defs>
<linearGradient id="paint0_linear_1_30" x1="63.5" y1="1" x2="63.5" y2="79" gradientUnits="userSpaceOnUse">
<stop stop-color="#01BE5F"/>
<stop offset="1" stop-color="#A3E635"/>
</linearGradient>
</defs>
</svg>
