<svg width="209" height="85" viewBox="0 0 209 85" fill="none" xmlns="http://www.w3.org/2000/svg">
<g clip-path="url(#clip0_1_77)">
<path d="M14.0682 72H3.52273L19.5909 25.4545H32.2727L48.3182 72H37.7727L26.1136 36.0909H25.75L14.0682 72ZM13.4091 53.7045H38.3182V61.3864H13.4091V53.7045ZM53.9205 25.4545H66.0568L78.875 56.7273H79.4205L92.2386 25.4545H104.375V72H94.8295V41.7045H94.4432L82.3977 71.7727H75.8977L63.8523 41.5909H63.4659V72H53.9205V25.4545ZM120.506 72H109.96L126.028 25.4545H138.71L154.756 72H144.21L132.551 36.0909H132.188L120.506 72ZM119.847 53.7045H144.756V61.3864H119.847V53.7045ZM199.29 25.4545V72H190.79L170.54 42.7045H170.199V72H160.358V25.4545H168.994L189.085 54.7273H189.494V25.4545H199.29Z" fill="url(#paint0_linear_1_77)"/>
</g>
<defs>
<linearGradient id="paint0_linear_1_77" x1="104" y1="10" x2="104" y2="72" gradientUnits="userSpaceOnUse">
<stop stop-color="#01BE5F"/>
<stop offset="1" stop-color="#A3E635"/>
</linearGradient>
<clipPath id="clip0_1_77">
<rect width="209" height="85" fill="white"/>
</clipPath>
</defs>
</svg>
