<svg width="64" height="64" viewBox="0 0 64 64" fill="none" xmlns="http://www.w3.org/2000/svg">
  <!-- Admin crown -->
  <path d="M20 16L24 12L32 18L40 12L44 16L42 22H22L20 16Z" fill="#7C3AED" fill-opacity="0.2"/>
  <path d="M20 16L24 12L32 18L40 12L44 16L42 22H22L20 16Z" stroke="#7C3AED" stroke-width="2"/>
  
  <!-- Crown jewels -->
  <circle cx="26" cy="16" r="2" fill="#7C3AED"/>
  <circle cx="32" cy="14" r="2" fill="#7C3AED"/>
  <circle cx="38" cy="16" r="2" fill="#7C3AED"/>
  
  <!-- Clipboard/Document -->
  <rect x="18" y="24" width="28" height="32" rx="3" fill="#7C3AED" fill-opacity="0.1"/>
  <rect x="18" y="24" width="28" height="32" rx="3" stroke="#7C3AED" stroke-width="2"/>
  
  <!-- Document lines -->
  <rect x="22" y="32" width="20" height="2" rx="1" fill="#7C3AED"/>
  <rect x="22" y="38" width="16" height="2" rx="1" fill="#7C3AED"/>
  <rect x="22" y="44" width="18" height="2" rx="1" fill="#7C3AED"/>
  <rect x="22" y="50" width="14" height="2" rx="1" fill="#7C3AED"/>
  
  <!-- Checkmark -->
  <path d="M38 34L40 36L44 30" stroke="#7C3AED" stroke-width="2" stroke-linecap="round" stroke-linejoin="round"/>
</svg>