<svg width="120" height="120" viewBox="0 0 120 120" fill="none" xmlns="http://www.w3.org/2000/svg">
  <rect x="15" y="25" width="90" height="60" rx="8" fill="#2563EB" stroke="#1E40AF" stroke-width="2"/>
  <rect x="20" y="30" width="80" height="35" rx="4" fill="#DBEAFE"/>
  <circle cx="30" cy="95" r="8" fill="#374151"/>
  <circle cx="90" cy="95" r="8" fill="#374151"/>
  <circle cx="30" cy="95" r="4" fill="#F3F4F6"/>
  <circle cx="90" cy="95" r="4" fill="#F3F4F6"/>
  <rect x="25" y="35" width="15" height="12" rx="2" fill="#60A5FA"/>
  <rect x="45" y="35" width="15" height="12" rx="2" fill="#60A5FA"/>
  <rect x="65" y="35" width="15" height="12" rx="2" fill="#60A5FA"/>
  <rect x="85" y="35" width="10" height="12" rx="2" fill="#60A5FA"/>
  <rect x="25" y="50" width="15" height="12" rx="2" fill="#60A5FA"/>
  <rect x="45" y="50" width="15" height="12" rx="2" fill="#60A5FA"/>
  <rect x="65" y="50" width="15" height="12" rx="2" fill="#60A5FA"/>
  <rect x="85" y="50" width="10" height="12" rx="2" fill="#60A5FA"/>
  <rect x="12" y="70" width="96" height="4" rx="2" fill="#1E40AF"/>
</svg>
