<svg width="64" height="64" viewBox="0 0 64 64" fill="none" xmlns="http://www.w3.org/2000/svg">
  <!-- Car body -->
  <path d="M12 32L16 22H48L52 32V44C52 46.2091 50.2091 48 48 48H16C13.7909 48 12 46.2091 12 44V32Z" fill="#10B981" fill-opacity="0.15"/>
  <path d="M12 32L16 22H48L52 32V44C52 46.2091 50.2091 48 48 48H16C13.7909 48 12 46.2091 12 44V32Z" stroke="#10B981" stroke-width="2"/>
  
  <!-- Windshield -->
  <path d="M18 22L20 28H44L46 22" fill="#10B981" fill-opacity="0.3"/>
  
  <!-- Wheels -->
  <circle cx="20" cy="48" r="8" fill="#FFFFFF" stroke="#10B981" stroke-width="2"/>
  <circle cx="44" cy="48" r="8" fill="#FFFFFF" stroke="#10B981" stroke-width="2"/>
  <circle cx="20" cy="48" r="4" fill="#10B981"/>
  <circle cx="44" cy="48" r="4" fill="#10B981"/>
  
  <!-- Door handles -->
  <rect x="26" y="34" width="3" height="6" rx="1.5" fill="#10B981"/>
  <rect x="35" y="34" width="3" height="6" rx="1.5" fill="#10B981"/>
  
  <!-- Steering wheel indicator -->
  <circle cx="23" cy="30" r="2" fill="none" stroke="#10B981" stroke-width="1.5"/>
</svg>