<svg width="64" height="64" viewBox="0 0 64 64" fill="none" xmlns="http://www.w3.org/2000/svg">
  <!-- Person body -->
  <path d="M32 36C23.163 36 16 43.163 16 52H48C48 43.163 40.837 36 32 36Z" fill="#2563EB" fill-opacity="0.15"/>
  <path d="M32 36C23.163 36 16 43.163 16 52" stroke="#2563EB" stroke-width="2" stroke-linecap="round"/>
  <path d="M32 36C40.837 36 48 43.163 48 52" stroke="#2563EB" stroke-width="2" stroke-linecap="round"/>
  
  <!-- Person head -->
  <circle cx="32" cy="20" r="10" fill="#2563EB" fill-opacity="0.15"/>
  <circle cx="32" cy="20" r="10" stroke="#2563EB" stroke-width="2"/>
  
  <!-- Face features -->
  <circle cx="28" cy="18" r="1.5" fill="#2563EB"/>
  <circle cx="36" cy="18" r="1.5" fill="#2563EB"/>
  <path d="M28 24C30 26 34 26 36 24" stroke="#2563EB" stroke-width="1.5" stroke-linecap="round"/>
  
  <!-- Bag/Luggage -->
  <rect x="40" y="46" width="8" height="6" rx="2" fill="#2563EB" fill-opacity="0.2" stroke="#2563EB" stroke-width="1.5"/>
  <path d="M42 46V44C42 43.4477 42.4477 43 43 43H45C45.5523 43 46 43.4477 46 44V46" stroke="#2563EB" stroke-width="1.5"/>
</svg>