<svg width="120" height="120" viewBox="0 0 120 120" fill="none" xmlns="http://www.w3.org/2000/svg">
  <rect x="10" y="20" width="100" height="70" rx="8" fill="#10B981" stroke="#059669" stroke-width="2"/>
  <rect x="15" y="25" width="90" height="40" rx="4" fill="#D1FAE5"/>
  <circle cx="25" cy="100" r="10" fill="#374151"/>
  <circle cx="95" cy="100" r="10" fill="#374151"/>
  <circle cx="25" cy="100" r="5" fill="#F3F4F6"/>
  <circle cx="95" cy="100" r="5" fill="#F3F4F6"/>
  
  <!-- Ticket/QR Code -->
  <rect x="35" y="35" width="50" height="30" rx="4" fill="#FFFFFF" stroke="#10B981" stroke-width="1"/>
  <rect x="40" y="40" width="8" height="8" fill="#10B981"/>
  <rect x="50" y="40" width="8" height="8" fill="#10B981"/>
  <rect x="60" y="40" width="8" height="8" fill="#FFFFFF"/>
  <rect x="70" y="40" width="8" height="8" fill="#10B981"/>
  <rect x="40" y="50" width="8" height="8" fill="#FFFFFF"/>
  <rect x="50" y="50" width="8" height="8" fill="#10B981"/>
  <rect x="60" y="50" width="8" height="8" fill="#10B981"/>
  <rect x="70" y="50" width="8" height="8" fill="#FFFFFF"/>
  
  <!-- Smartphone -->
  <rect x="90" y="15" width="25" height="40" rx="4" fill="#1F2937" stroke="#374151" stroke-width="1"/>
  <rect x="93" y="20" width="19" height="30" rx="2" fill="#60A5FA"/>
  <circle cx="102.5" cy="45" r="2" fill="#374151"/>
</svg>
