<svg width="120" height="120" viewBox="0 0 120 120" fill="none" xmlns="http://www.w3.org/2000/svg">
  <rect x="15" y="25" width="90" height="55" rx="8" fill="#7C3AED" stroke="#5B21B6" stroke-width="2"/>
  <rect x="20" y="30" width="80" height="30" rx="4" fill="#EDE9FE"/>
  <circle cx="30" cy="90" r="8" fill="#374151"/>
  <circle cx="90" cy="90" r="8" fill="#374151"/>
  <circle cx="30" cy="90" r="4" fill="#F3F4F6"/>
  <circle cx="90" cy="90" r="4" fill="#F3F4F6"/>
  
  <!-- Notification Bell -->
  <circle cx="85" cy="15" r="15" fill="#EF4444"/>
  <path d="M78 15 C78 11 81 8 85 8 C89 8 92 11 92 15 C92 19 89 22 85 22 C81 22 78 19 78 15 Z" fill="#FBBF24"/>
  <circle cx="85" cy="15" r="3" fill="#FFFFFF"/>
  <rect x="83" y="22" width="4" height="2" rx="1" fill="#FBBF24"/>
  
  <!-- Signal waves -->
  <path d="M25 35 Q30 30 35 35" stroke="#7C3AED" stroke-width="2" fill="none"/>
  <path d="M45 35 Q50 30 55 35" stroke="#7C3AED" stroke-width="2" fill="none"/>
  <path d="M65 35 Q70 30 75 35" stroke="#7C3AED" stroke-width="2" fill="none"/>
  
  <!-- Clock -->
  <circle cx="60" cy="45" r="8" fill="#FFFFFF" stroke="#7C3AED" stroke-width="1"/>
  <line x1="60" y1="45" x2="60" y2="40" stroke="#7C3AED" stroke-width="1"/>
  <line x1="60" y1="45" x2="64" y2="45" stroke="#7C3AED" stroke-width="1"/>
</svg>
